<svg width="569" height="166" xmlns="http://www.w3.org/2000/svg">
  <g fill="none">
    <path d="M108.4 82.9H82.8c0 8.8 1.4 17.2 4 25.1 12.1-2 21.4-12.4 21.6-25.1zm56.6 4.3c-1.6 28.6-17.7 53.3-41 66.8 12.2 7 26.4 11.1 41 11.1V87.2z" fill="#6A6A6A"/>
    <path d="M57 82.9H.3c.1 22.7 9.2 43.3 24.1 58.2L64.5 101c-4.6-4.7-7.4-11.1-7.5-18.1" fill="#8B8B8A"/>
    <path d="M82.7 108.4c-7 0-13.5-2.9-18.1-7.4l-40.1 40.1c14.9 14.8 35.5 24.1 58.2 24.1.1 0-.1 0 0 0v-56.8c-.1 0 .1 0 0 0" fill="#3C3C3B"/>
    <path d="M83 56.7c.1 0 0 0 0 0V0c-.1 0 .1 0 0 0-22.9 0-43.8 9.3-58.8 24.4l40 40.2c4.8-4.8 11.6-7.9 18.8-7.9" fill="#292627"/>
    <path d="M57 82.5c0-6.9 2.8-13.3 7.3-18L24.2 24.3C9.4 39.2.2 59.8.2 82.5v.4H57v-.4" fill="#575756"/>
    <path d="M100.9 64.3L141 24.2C126.2 9.3 105.7.1 83.1 0v56.7c6.9.1 13.2 3 17.8 7.6" fill="#7C7B7B"/>
    <path d="M86.7 108c-1.3.2-2.7.3-4.1.3V165c15 0 29.2-4.1 41.3-11.1-6.3-3.6-12-8-17.1-13-9.1-9.1-16-20.3-20.1-32.9" fill="#6F6F6E"/>
    <path d="M165 87.2v-4.3h-56.6c-.2 12.7-9.5 23.2-21.6 25.1 4 12.5 11 23.8 20.1 32.9 5.1 5 10.8 9.4 17.1 13 23.3-13.5 39.4-38.2 41-66.7" fill="#292627"/>
    <path d="M268.2 81.9v28.3c-5.6 3.4-14.8 5.3-21.7 5.3-19.5 0-30.7-13.9-30.7-30.2 0-17 12.4-30.2 29.9-30.2 10.5 0 16.9 2.8 21.4 7.5l-5.5 5.9c-4.7-4.5-10.1-6.1-15.9-6.1-13.1 0-21.6 10.3-21.6 22.9 0 13 9.7 22.9 22.3 22.9 5.4 0 10.6-1 14.1-3v-16h-12.7v-7.3h20.4z" fill="#000"/>
    <path d="M246.5 116.1c-18.5 0-31.4-12.7-31.4-30.8 0-17.5 13.1-30.8 30.5-30.8 9.9 0 16.8 2.4 21.9 7.7l.4.4-6.3 6.8-.5-.4c-4.1-4-9.2-5.9-15.5-5.9-12.2 0-21 9.4-21 22.2 0 12.7 9.3 22.2 21.7 22.2 5.3 0 10.1-1 13.5-2.7v-15h-12.7v-8.6h21.8v29.3l-.3.2c-6.1 3.7-15.7 5.4-22.1 5.4zm-.8-60.3c-17 0-29.3 12.4-29.3 29.5 0 17.4 12.4 29.5 30.1 29.5 6.1 0 15.2-1.6 21.1-5V82.5h-19.3v6H261v17l-.3.2c-3.5 2-8.8 3.1-14.4 3.1-13.1 0-22.9-10.1-22.9-23.5 0-13.6 9.4-23.5 22.3-23.5 6.4 0 11.6 1.9 15.9 5.8l4.7-5c-4.8-4.6-11.4-6.8-20.6-6.8zm48.9 18.8c11.4 0 20.4 9 20.4 20.2s-9 20.2-20.4 20.2c-11.4 0-20.4-9-20.4-20.2s9-20.2 20.4-20.2zm0 33.6c7.8 0 12.6-5.6 12.6-13.4 0-7.8-4.9-13.4-12.6-13.4-7.8 0-12.6 5.6-12.6 13.4 0 7.8 4.8 13.4 12.6 13.4z" fill="#000"/>
    <path d="M294.6 115.6c-11.8 0-21-9.1-21-20.8 0-11.7 9.2-20.8 21-20.8s21 9.1 21 20.8c.1 11.7-9.2 20.8-21 20.8zm0-40.4c-11.1 0-19.8 8.6-19.8 19.6 0 11 8.7 19.6 19.8 19.6 11.1 0 19.8-8.6 19.8-19.6 0-11-8.7-19.6-19.8-19.6zm0 33.6c-7.9 0-13.3-5.6-13.3-14s5.3-14 13.3-14c7.9 0 13.3 5.6 13.3 14s-5.4 14-13.3 14zm0-26.8c-7.2 0-12 5.1-12 12.7s4.8 12.7 12 12.7 12-5.1 12-12.7c0-7.5-4.8-12.7-12-12.7zm45-7.4c11.4 0 20.4 9 20.4 20.2s-9 20.2-20.4 20.2c-11.4 0-20.4-9-20.4-20.2s9-20.2 20.4-20.2zm0 33.6c7.8 0 12.6-5.6 12.6-13.4 0-7.8-4.9-13.4-12.6-13.4-7.8 0-12.6 5.6-12.6 13.4 0 7.8 4.8 13.4 12.6 13.4z" fill="#000"/>
    <path d="M339.6 115.6c-11.8 0-21.1-9.1-21.1-20.8 0-11.7 9.2-20.8 21.1-20.8 11.8 0 21.1 9.1 21.1 20.8 0 11.7-9.3 20.8-21.1 20.8zm0-40.4c-11.1 0-19.8 8.6-19.8 19.6 0 11 8.7 19.6 19.8 19.6 11.1 0 19.8-8.6 19.8-19.6 0-11-8.7-19.6-19.8-19.6zm0 33.6c-7.9 0-13.3-5.6-13.3-14s5.3-14 13.3-14c7.9 0 13.3 5.6 13.3 14s-5.3 14-13.3 14zm0-26.8c-7.2 0-12 5.1-12 12.7s4.8 12.7 12 12.7 12-5.1 12-12.7c0-7.5-4.8-12.7-12-12.7zm65.1 32h-7.3v-5.5h-.2c-2.8 4.1-8.2 6.5-13.4 6.5-11.9 0-19.5-8.8-19.5-20.2 0-11.5 7.7-20.2 19.5-20.2 5.5 0 10.8 2.5 13.4 6.5h.2V55.7h7.3V114zm-7.3-19.2c0-7.8-4.9-13.4-12.6-13.4-7.8 0-12.6 5.6-12.6 13.4 0 7.8 4.9 13.4 12.6 13.4 7.8 0 12.6-5.6 12.6-13.4z" fill="#000"/>
    <path d="M383.9 115.6c-11.8 0-20.2-8.6-20.2-20.8 0-12.3 8.3-20.8 20.2-20.8 5.1 0 10 2.1 12.9 5.5V55h8.6v59.6h-8.6v-4.5c-3 3.4-7.9 5.5-12.9 5.5zm0-40.4c-11.1 0-18.9 8-18.9 19.6 0 11.5 7.8 19.6 18.9 19.6 5.2 0 10.3-2.4 12.9-6.2l.2-.3h.9l.1.6v4.9h6.1V56.3H398v25.4h-1l-.3-.3c-2.4-3.7-7.5-6.2-12.8-6.2zm.9 33.6c-7.9 0-13.3-5.6-13.3-14s5.3-14 13.3-14c7.9 0 13.3 5.6 13.3 14s-5.4 14-13.3 14zm0-26.8c-7.2 0-12 5.1-12 12.7s4.8 12.7 12 12.7 12-5.1 12-12.7c0-7.5-4.8-12.7-12-12.7zm29.6-25.8h17.5c24.2 0 30.2 18.5 30.2 29.1 0 14.7-10.9 28.7-31.5 28.7h-16.2V56.2zm7.8 50.5h7.3c13.1 0 24.3-7.2 24.3-21.4 0-7.3-3.8-21.8-22.4-21.8h-9.1v43.2h-.1z" fill="#000"/>
    <path d="M430.6 114.6h-16.8V55.5h18.1c24.3 0 30.8 18.7 30.8 29.7 0 14.7-11 29.4-32.1 29.4zm-15.6-1.2h15.6c21.2 0 30.8-14.6 30.8-28.1 0-2.9-.8-28.5-29.5-28.5H415v56.6zm14.5-6.1h-7.9V62.8h9.8c22.4 0 23.1 20.2 23.1 22.5-.1 15.2-12.6 22-25 22zm-6.7-1.2h6.7c10.9 0 23.7-5.4 23.7-20.8 0-2.2-.6-21.2-21.8-21.2h-8.5v42h-.1zm45-25.8c4.1-3.8 9.9-5.7 15.2-5.7 11.3 0 16.1 6.2 16.1 12.8V107c0 2.7.1 4.9.3 7h-6.5c-.2-1.9-.2-3.9-.2-5.8h-.2c-3.2 4.9-7.6 6.8-13.5 6.8-7.1 0-13.3-4-13.3-11.5 0-9.9 9.5-13.3 21.2-13.3h5.3v-1.6c0-4-2.9-8.1-9.2-8.1-5.6 0-8.3 2.4-10.9 4.4l-4.3-4.6zm20.6 15.2c-6.9 0-15.3 1.2-15.3 7.4 0 4.4 3.2 6.2 8.3 6.2 8.1 0 10.9-6 10.9-11.2v-2.4h-3.9z" fill="#000"/>
    <path d="M479.1 115.6c-8.2 0-13.9-5-13.9-12.1 0-9 7.7-13.9 21.8-13.9h4.7v-1c0-3.6-2.7-7.5-8.5-7.5-5 0-7.6 1.9-10 3.8l-1 .7-5.2-5.4.5-.4c3.9-3.7 9.7-5.9 15.7-5.9 12.3 0 16.7 6.9 16.7 13.4V107c0 2.9.1 5 .3 6.9l.1.7h-7.8v-.6c-.1-1.4-.2-2.8-.2-4.2-3.3 4-7.5 5.8-13.2 5.8zm7.8-24.8c-9.4 0-20.5 2.2-20.5 12.7 0 7.5 6.4 10.9 12.7 10.9 6 0 10-2 12.9-6.5l.2-.3h1l.2.6c0 1.7.1 3.5.2 5.2h5.2c-.2-1.7-.2-3.7-.2-6.3V87.5c0-5.9-4-12.2-15.4-12.2-5.4 0-10.7 1.9-14.3 5.1l3.5 3.7.1-.1c2.5-1.9 5.4-4.1 10.8-4.1 6.7 0 9.8 4.5 9.8 8.7v2.2h-6.2zm-5.6 19c-5.7 0-8.9-2.4-8.9-6.9 0-3.7 2.8-8 16-8h4.5V98c0 5.4-3 11.8-11.6 11.8zm7.1-13.6c-6.7 0-14.7 1.2-14.7 6.8 0 3.7 2.6 5.6 7.7 5.6 7.6 0 10.3-5.4 10.3-10.6v-1.8h-3.3zm40.8-14.3h-10.5v17.4c0 4.3 0 8.8 5.5 8.8 1.7 0 3.7-.2 5.2-1.1v6.6c-1.7 1-5.1 1.3-6.6 1.3-11.3 0-11.4-6.9-11.4-13v-20H503v-6.3h8.4V64.8h7.3v10.8h10.5v6.3z" fill="#000"/>
    <path d="M522.9 115.6c-12.1 0-12.1-7.9-12.1-13.7V82.5h-8.4V75h8.4V64.2h8.5V75h10.5v7.6h-10.5v16.8c0 5.1.3 8.2 4.9 8.2 1.5 0 3.5-.2 4.9-1l1-.6v8.2l-.3.2c-2 1-5.7 1.2-6.9 1.2zm-19.2-34.3h8.4V102c0 5.8 0 12.4 10.8 12.4 1.6 0 4.4-.3 5.9-1.1v-5.2c-1.5.6-3.3.8-4.6.8-6.1 0-6.1-5.3-6.1-9.5V81.3h10.5v-5.1h-10.5V65.4h-6v10.8h-8.4v5.1zm32.7-1c4-3.8 9.9-5.7 15.2-5.7 11.3 0 16 6.2 16 12.8V107c0 2.7.1 4.9.3 7h-6.5c-.2-1.9-.2-3.9-.2-5.8h-.2c-3.2 4.9-7.6 6.8-13.4 6.8-7.1 0-13.3-4-13.3-11.5 0-9.9 9.5-13.3 21.2-13.3h5.3v-1.6c0-4-2.9-8.1-9.1-8.1-5.6 0-8.3 2.4-11 4.4l-4.3-4.6zM557 95.5c-6.9 0-15.3 1.2-15.3 7.4 0 4.4 3.2 6.2 8.3 6.2 8.1 0 10.9-6 10.9-11.2v-2.4H557z" fill="#000"/>
    <path d="M547.6 115.6c-8.2 0-13.9-5-13.9-12.1 0-9 7.7-13.9 21.8-13.9h4.7v-1c0-3.6-2.7-7.5-8.5-7.5-5 0-7.6 1.9-10 3.8l-1 .7-5.2-5.4.5-.4c3.9-3.7 9.7-5.9 15.7-5.9 12.3 0 16.7 6.9 16.7 13.4V107c0 2.9.1 5 .3 6.9l.1.7H561v-.6c-.1-1.4-.2-2.8-.2-4.2-3.2 4-7.4 5.8-13.2 5.8zm7.9-24.8c-9.4 0-20.5 2.2-20.5 12.7 0 7.5 6.4 10.9 12.7 10.9 6 0 10-2 12.9-6.5l.2-.3h1l.2.6c0 1.7.1 3.5.2 5.2h5.2c-.2-1.7-.3-3.7-.3-6.3V87.5c0-5.9-4-12.2-15.4-12.2-5.4 0-10.7 1.9-14.4 5.1l3.5 3.7.1-.1c2.5-1.9 5.4-4.1 10.8-4.1 6.7 0 9.8 4.5 9.8 8.7v2.2h-6zm-5.6 19c-5.7 0-8.9-2.4-8.9-6.9 0-3.7 2.8-8 15.9-8h4.5V98c.1 5.4-3 11.8-11.5 11.8zm7.1-13.6c-6.7 0-14.7 1.2-14.7 6.8 0 3.7 2.6 5.6 7.6 5.6 7.6 0 10.3-5.4 10.3-10.6v-1.8H557z" fill="#000"/>
  </g>
</svg>
