<?xml version="1.0" encoding="UTF-8"?>
<svg width="456px" height="457px" viewBox="0 0 456 457" version="1.1" xmlns="http://www.w3.org/2000/svg" xmlns:xlink="http://www.w3.org/1999/xlink">
    <!-- Generator: Sketch 43.2 (39069) - http://www.bohemiancoding.com/sketch -->
    <title>Group</title>
    <desc>Created with Sketch.</desc>
    <defs></defs>
    <g id="Page-1" stroke="none" stroke-width="1" fill="none" fill-rule="evenodd">
        <g id="Group">
            <path d="M278.087,363.93 L278.087,364.854 L278.101,364.854 C278.101,364.539 278.087,364.236 278.087,363.93" id="Fill-3" fill="#464643"></path>
            <path d="M239.013,299.166 C231.955,277.264 228.121,253.904 228.025,229.652 L298.816,229.652 C298.323,264.711 272.623,293.658 239.013,299.166" id="Fill-4" fill="#ACACA9"></path>
            <path d="M455.342,456.949 C414.949,456.882 375.755,445.691 341.893,426.213 C406.487,388.691 450.992,320.412 455.342,241.426 L455.342,456.949" id="Fill-5" fill="#ACACA9"></path>
            <path d="M66.785,390.47 C25.596,349.356 0.319,292.385 0.058,229.652 L156.929,229.652 C157.197,249.047 164.902,266.795 177.682,279.515 C177.678,279.517 177.677,279.516 177.676,279.515 L66.785,390.47" id="Fill-6" fill="#91928E"></path>
            <path d="M227.86,456.979 L227.797,456.979 L227.86,456.979 M227.797,456.979 L227.735,456.979 L227.797,456.979 L227.797,456.979 C165.039,456.979 108.059,431.453 66.785,390.47 L177.682,279.515 C190.565,292.123 208.351,300.11 227.797,300.11 L227.797,300.114 L227.797,456.979" id="Fill-7" fill="#D6D6D0"></path>
            <path d="M66.785,390.47 L177.676,279.515 C177.677,279.516 177.678,279.517 177.679,279.518 L66.785,390.47" id="Fill-8" fill="#F3F2EF"></path>
            <path d="M177.041,178.947 L66.299,67.831 L66.293,67.831 C107.664,26.163 165.449,0.333 228.803,0.333 L228.803,157.199 L228.803,157.197 L228.803,157.199 C208.763,157.199 190.02,165.667 177.038,178.945 M228.803,0.333 L228.74,0.333 L228.803,0.333" id="Fill-9" fill="#F5F4F2"></path>
            <path d="M156.929,229.652 L0.05,229.652 C0.05,229.322 0.038,228.986 0.038,228.65 C0.038,165.941 25.362,109.096 66.299,67.831 L177.036,178.947 C177.037,178.946 177.038,178.946 177.038,178.945 L177.041,178.947 C164.711,191.795 156.898,209.443 156.898,228.65 C156.898,228.986 156.923,229.322 156.929,229.652" id="Fill-10" fill="#ACACA9"></path>
            <path d="M177.036,178.947 L66.293,67.831 L66.299,67.831 L177.041,178.947 C177.038,178.946 177.037,178.946 177.036,178.947" id="Fill-11" fill="#FEFDFD"></path>
            <path d="M278.075,178.287 C265.492,165.615 247.966,157.623 228.803,157.199 C228.903,157.199 228.854,157.198 228.803,157.197 L228.803,0.333 L228.861,0.333 L228.803,0.333 L228.803,0.328 C291.292,0.769 348.016,26.312 388.996,67.376 L278.075,178.287" id="Fill-12" fill="#91928E"></path>
            <path d="M228.803,157.199 L228.803,157.199 C228.854,157.198 228.903,157.199 228.803,157.199 M228.861,0.333 L228.803,0.333 L228.861,0.333" id="Fill-13" fill="#FDFCFB"></path>
            <path d="M227.797,456.979 L227.797,300.11 C227.851,300.113 227.906,300.11 227.797,300.11 C231.533,300.081 235.43,299.754 239.013,299.166 C250.182,333.865 269.399,364.939 294.634,390.131 C308.606,404.083 324.555,416.24 341.893,426.213 C308.403,445.684 269.292,456.866 227.797,456.979" id="Fill-14" fill="#ACACA9"></path>
            <path d="M227.797,300.11 L227.797,300.11 C227.906,300.11 227.851,300.113 227.797,300.114" id="Fill-15" fill="#F7F6F4"></path>
            <path d="M341.893,426.213 L341.893,426.213 C324.555,416.24 308.606,404.083 294.634,390.131 C269.411,364.932 250.182,333.865 239.013,299.166 C272.623,293.658 298.338,264.711 298.816,229.652 L455.342,229.652 L455.342,241.426 C450.992,320.412 406.487,388.691 341.893,426.213 M278.087,363.93 L278.087,364.854 L278.101,364.854 C278.101,364.539 278.087,364.236 278.087,363.93" id="Fill-16" fill="#FDFCFB"></path>
            <path d="M278.101,364.854 L278.087,364.854 L278.087,363.93 C278.087,364.236 278.101,364.539 278.101,364.854" id="Fill-17" fill="#FFFEFE"></path>
            <path d="M341.893,426.213 C324.555,416.24 308.606,404.083 294.634,390.131 C269.399,364.939 250.182,333.865 239.013,299.166 C250.182,333.865 269.411,364.932 294.634,390.131 C308.606,404.083 324.555,416.24 341.893,426.213" id="Fill-18" fill="#FFFFFE"></path>
        </g>
    </g>
</svg>