<?xml version="1.0" encoding="UTF-8"?>
<svg width="1440px" height="369px" viewBox="0 0 1440 369" version="1.1" xmlns="http://www.w3.org/2000/svg" xmlns:xlink="http://www.w3.org/1999/xlink">
    <!-- Generator: Sketch 49.3 (51167) - http://www.bohemiancoding.com/sketch -->
    <title>Main banner</title>
    <desc>Created with Sketch.</desc>
    <defs>
        <linearGradient x1="50%" y1="0%" x2="50%" y2="100%" id="linearGradient-1">
            <stop stop-color="#000000" stop-opacity="0" offset="0%"></stop>
            <stop stop-color="#000000" stop-opacity="0.515737897" offset="76.6550759%"></stop>
            <stop stop-color="#000000" offset="100%"></stop>
        </linearGradient>
    </defs>
    <g id="Page-1" stroke="none" stroke-width="1" fill="none" fill-rule="evenodd">
        <g id="Main-banner" transform="translate(0.000000, -413.000000)">
            <g id="UI-motif" transform="translate(0.000000, 182.000000)">
                <g id="machine-learning-01" transform="translate(1299.500000, 287.000000) rotate(14.000000) translate(-1299.500000, -287.000000) translate(1249.000000, 240.000000)" fill="#FFFFFF" fill-rule="nonzero">
                    <path d="M53.28,2.37 L58.93,2.37 C60.8031744,2.39190997 62.3101281,3.9166975 62.31,5.79 L62.31,9.08 C62.3073489,9.34741366 62.3583546,9.61264335 62.46,9.86 C62.6918213,10.4106085 63.1576493,10.8287533 63.73,11 C66.5201058,11.808712 69.2052649,12.9431917 71.73,14.38 C72.5040682,14.817067 73.473717,14.6907682 74.11,14.07 L76.45,11.75 C77.7802491,10.4266029 79.9297509,10.4266029 81.26,11.75 L88.83,19.41 C89.1304514,19.7199714 89.3711454,20.0827074 89.54,20.48 C90.0682062,21.7587856 89.7763869,23.2297128 88.8,24.21 L86.49,26.6 C85.9155894,27.1706151 85.7418813,28.0312597 86.05,28.78 L86.14,28.98 C86.7946928,30.1592489 87.3822943,31.3745155 87.9,32.62 C88.50361,34.0626574 89.0146461,35.5423241 89.43,37.05 L89.51,37.28 C89.8184968,38.0195951 90.5386693,38.5036455 91.34,38.51 L94.63,38.51 C95.9969031,38.5213774 97.2249139,39.3479231 97.75,40.61 C97.9195621,41.0327027 98.0045011,41.4845787 98,41.94 L97.93,52.71 C97.9273584,53.6108255 97.566283,54.4735565 96.9264923,55.1077186 C96.2867016,55.7418806 95.4208137,56.0953185 94.52,56.09 L91.22,56.09 C90.3311111,56.09 89.5488889,56.6766667 89.3,57.53 C88.487994,60.318936 87.3536734,63.0037185 85.92,65.53 C85.6159466,66.0653128 85.5753715,66.7108272 85.81,67.28 C85.9086091,67.5148269 86.0511633,67.7286582 86.23,67.91 L88.55,70.26 C89.1875292,70.8959833 89.5458196,71.7594901 89.5458196,72.66 C89.5458196,73.5605099 89.1875292,74.4240167 88.55,75.06 L80.88,82.63 C79.5543407,83.9456116 77.4156593,83.9456116 76.09,82.63 L73.77,80.29 C73.1409173,79.6592775 72.1705217,79.5206496 71.39,79.95 C68.8379366,81.3560232 66.1293204,82.4569229 63.32,83.23 C62.4622872,83.4704854 61.8670096,84.2492389 61.86,85.14 L61.86,88.44 C61.8380906,90.3076515 60.31778,91.8101285 58.45,91.81 L53.32,91.81 L53.32,93.81 L58.44,93.81 C61.4106847,93.8155827 63.8280001,91.4206085 63.85,88.45 L63.85,85.15 C66.8110585,84.3394178 69.6646281,83.1778471 72.35,81.69 L74.65,84 C76.7591541,86.0922223 80.1608459,86.0922223 82.27,84 L89.93,76.43 C91.49175,74.8767383 91.9581649,72.5328063 91.11,70.5 C90.8418867,69.8908906 90.4658363,69.3352847 90,68.86 L87.69,66.52 C89.2067036,63.8505359 90.4017037,61.0107324 91.25,58.06 L94.55,58.06 C97.519059,58.0710986 99.9379868,55.6789981 99.96,52.71 L100,42 C100.007979,40.5704765 99.4477431,39.1963353 98.4425433,38.1798833 C97.4373436,37.1634313 96.0695238,36.5879344 94.64,36.58 L91.35,36.58 C90.9124603,34.9941699 90.3747127,33.4377081 89.74,31.92 C89.1951076,30.5806501 88.5775225,29.2720373 87.89,28 L90.23,25.69 C91.2424774,24.6805892 91.8115398,23.3096925 91.8115398,21.88 C91.8115398,20.4503075 91.2424774,19.0794108 90.23,18.07 L82.7,10.42 C80.6046009,8.31387479 77.2028569,8.29155364 75.08,10.37 L72.74,12.69 C70.0696678,11.1750603 67.2300781,9.98015021 64.28,9.13 L64.28,5.83 C64.2879787,4.40047646 63.7277431,3.02633533 62.7225433,2.00988334 C61.7173436,0.993431338 60.3495238,0.41793439 58.92,0.41 L53.26,0.41 L53.28,2.37 Z" id="Shape"></path>
                    <path d="M53.28,71.34 L53.28,69.34 C65.5793814,69.34 75.55,59.3693814 75.55,47.07 C75.55,34.7706186 65.5793814,24.8 53.28,24.8 L53.28,22.8 C61.950836,22.7999998 69.9630189,27.4258356 74.298437,34.9349999 C78.633855,42.4441641 78.633855,51.6958359 74.298437,59.2050001 C69.9630189,66.7141644 61.950836,71.3400002 53.28,71.34 Z" id="Shape"></path>
                    <path d="M44.45,93.75 C36,93.75 30.38,90.91 27,88.3 C24.6529727,86.5154934 22.6961305,84.2693789 21.25,81.7 C15.5,80.92 11.25,78.59 8.56,74.77 C4.37,68.76 5.49,61 5.87,59.06 C-5.46,43.84 5.57,32.42 8,30.19 C7.33,25.51 8.14,21.55 10.42,18.42 C12.8652607,15.3100953 16.327907,13.1609887 20.2,12.35 C25.28,-0.48 48,0.47 49,0.52 C49.5522847,0.52 50,0.96771525 50,1.52 L50,92.52 C50.0031062,93.0320317 49.6189349,93.4636849 49.11,93.52 C47.5620982,93.6825631 46.0063867,93.7593471 44.45,93.75 Z M47.66,2.48 C42.77,2.48 25.5,3.23 21.93,13.54 C21.8118697,13.8929463 21.5074981,14.1510843 21.14,14.21 C21.08,14.21 15.33,15.13 12.08,19.6 C10.08,22.41 9.38,26.04 10.08,30.41 C10.1394696,30.7704803 9.99761558,31.1347002 9.71,31.36 C9.14,31.81 -4.13,42.68 7.71,58.2 C7.8933401,58.4386506 7.95945341,58.7471794 7.89,59.04 C7.89,59.12 5.95,67.56 10.2,73.62 C12.61,77.07 16.59,79.13 22.01,79.77 C22.3624516,79.8108174 22.6668847,80.0353368 22.81,80.36 C23.05,80.89 28.81,93.36 47.93,91.57 L47.93,2.49 L47.66,2.48 Z" id="Shape"></path>
                    <path d="M26.45,31.19 C26.2677444,31.187138 26.0890566,31.1390298 25.93,31.05 C16.93,25.62 18.11,16.74 19.93,12.8 C20.1708506,12.3111159 20.7588176,12.1051133 21.252122,12.3367755 C21.7454264,12.5684378 21.9623929,13.1524479 21.74,13.65 C21.55,14.05 17.29,23.5 26.93,29.34 C27.3087443,29.574702 27.4865162,30.0316707 27.3659473,30.4606176 C27.2453785,30.8895645 26.8555595,31.1869942 26.41,31.19 L26.45,31.19 Z" id="Shape"></path>
                    <path d="M21.15,81.77 L21.09,81.77 C20.5377153,81.77 20.09,81.3222847 20.09,80.77 C20.09,80.2177153 20.5377153,79.77 21.09,79.77 L21.16,79.77 C23.5266221,79.7289965 25.8694183,79.2895109 28.09,78.47 C32.69,76.72 35.37,73.53 36.09,68.98 C36.1728427,68.4277153 36.6877153,68.0471573 37.24,68.13 C37.7922847,68.2128427 38.1728427,68.7277153 38.09,69.28 C36.2,81.54 22.15,81.77 21.15,81.77 Z" id="Shape"></path>
                    <path d="M23.08,56.3 C22.9197006,56.3040475 22.761127,56.2661277 22.62,56.19 C22.3835978,56.0683683 22.2053605,55.8576069 22.1246741,55.604289 C22.0439876,55.3509711 22.0674944,55.0759505 22.19,54.84 C24.92,49.59 30.33,46.42 37.85,45.66 C41.3428669,45.3234465 44.8653144,45.4647481 48.32,46.08 C48.6772656,46.1514531 48.9692728,46.4080774 49.0860254,46.7532051 C49.202778,47.0983327 49.1265384,47.4795306 48.8860254,47.7532051 C48.6455124,48.0268796 48.2772656,48.1514531 47.92,48.08 C47.74,48.08 29.81,44.55 23.92,55.8 C23.746093,56.1014921 23.4279336,56.2908727 23.08,56.3 Z" id="Shape"></path>
                    <path d="M44.13,27 C42.1130937,27.0247114 40.1188972,26.5724195 38.31,25.68 C35.31,24.16 33.17,21.4 31.92,17.48 C31.7823819,17.1330368 31.8494534,16.7383096 32.0939499,16.4562747 C32.3384464,16.1742398 32.7196661,16.0518483 33.0826434,16.1388521 C33.4456208,16.2258559 33.7299301,16.5077713 33.82,16.87 C34.9,20.26 36.71,22.62 39.2,23.87 C41.9349951,25.0927218 45.0167705,25.2984099 47.89,24.45 C48.4146705,24.2760303 48.9810303,24.5603295 49.155,25.085 C49.3289696,25.6096705 49.0446705,26.1760303 48.52,26.35 C47.0966336,26.7815501 45.617349,27.0005785 44.13,27 Z" id="Shape"></path>
                </g>
                <g id="Platform" transform="translate(1350.000000, 468.000000) rotate(10.000000) translate(-1350.000000, -468.000000) translate(1307.000000, 421.000000)" fill="#FFFFFF" fill-rule="nonzero">
                    <path d="M85.708,46.811 C85.712,44.95 84.897,43.099 83.359,41.698 C84.896,40.293 85.711,38.442 85.708,36.58 C85.712,34.633 84.83,32.694 83.153,31.272 L48.988,2.211 C47.307,0.786 45.145,0.1 42.997,0.099 C40.851,0.1 38.69,0.787 37.015,2.209 L2.849,31.271 C1.171,32.693 0.289,34.631 0.292,36.58 C0.289,38.441 1.104,40.292 2.641,41.697 C1.104,43.1 0.289,44.949 0.292,46.812 C0.289,48.712 1.134,50.603 2.736,52.018 C1.135,53.429 0.289,55.319 0.292,57.22 C0.289,59.161 1.165,61.095 2.833,62.519 L37.024,91.78 C38.696,93.209 40.854,93.899 43.001,93.901 C45.146,93.899 47.307,93.209 48.976,91.78 L83.167,62.52 C84.835,61.096 85.711,59.163 85.708,57.22 C85.712,55.32 84.866,53.43 83.267,52.018 C84.866,50.603 85.711,48.711 85.708,46.811 Z M4.124,32.768 L38.29,3.703 C39.556,2.625 41.269,2.06 42.997,2.061 C44.728,2.06 46.444,2.623 47.713,3.705 L81.876,32.765 C83.145,33.848 83.736,35.217 83.741,36.579 C83.738,37.937 83.147,39.305 81.886,40.39 L47.698,69.65 C46.433,70.732 44.724,71.297 43.002,71.296 C41.277,71.297 39.568,70.732 38.306,69.65 L4.116,40.39 C2.855,39.305 2.263,37.938 2.261,36.58 C2.262,35.217 2.856,33.849 4.124,32.768 Z M81.886,61.029 L47.697,90.29 C46.432,91.372 44.723,91.937 43.001,91.936 C41.276,91.937 39.567,91.372 38.305,90.29 L4.115,61.029 C2.854,59.945 2.262,58.58 2.26,57.22 C2.263,55.857 2.858,54.489 4.125,53.407 L4.238,53.313 L37.025,81.372 C38.697,82.801 40.855,83.491 43.002,83.492 C45.147,83.491 47.308,82.801 48.977,81.372 L81.767,53.31 L81.877,53.405 C83.146,54.487 83.737,55.857 83.742,57.219 C83.738,58.578 83.147,59.945 81.886,61.029 Z M81.886,50.621 L47.697,79.882 C46.432,80.963 44.723,81.529 43.001,81.528 C41.276,81.529 39.567,80.963 38.305,79.882 L4.115,50.621 C2.854,49.537 2.262,48.171 2.26,46.812 C2.263,45.449 2.858,44.081 4.125,42.999 L4.135,42.992 L37.024,71.14 C38.696,72.569 40.854,73.259 43.001,73.261 C45.146,73.259 47.307,72.569 48.976,71.14 L81.87,42.99 L81.877,42.997 C83.146,44.08 83.737,45.45 83.742,46.811 C83.738,48.17 83.147,49.537 81.886,50.621 Z" id="Shape"></path>
                    <path d="M31.106,44.86 L31.106,50.917 C31.106,51.459 31.546,51.899 32.09,51.899 C32.633,51.899 33.074,51.459 33.074,50.917 L33.073,50.917 L33.073,44.807 C35.569,44.309 37.533,42.346 38.029,39.855 L43.704,39.864 C43.703,39.919 43.688,39.968 43.688,40.022 C43.688,43.508 46.519,46.335 50.015,46.335 C53.508,46.335 56.339,43.509 56.339,40.022 C56.339,36.853 53.989,34.255 50.941,33.804 L50.518,29.354 C53.072,28.541 54.934,26.183 54.934,23.367 C54.934,19.881 52.103,17.054 48.608,17.054 C45.115,17.054 42.282,19.88 42.282,23.367 C42.282,26.842 45.096,29.656 48.574,29.676 L48.966,33.817 C46.69,34.199 44.845,35.784 44.082,37.9 L38.078,37.891 C37.714,34.753 35.07,32.309 31.828,32.309 C28.335,32.309 25.5,35.135 25.5,38.622 C25.501,41.859 27.958,44.498 31.106,44.86 Z M44.252,23.366 C44.252,20.969 46.209,19.018 48.609,19.018 C51.012,19.018 52.965,20.968 52.965,23.366 C52.965,25.764 51.012,27.714 48.609,27.714 C46.209,27.714 44.252,25.765 44.252,23.366 Z M50.017,35.675 C52.419,35.675 54.374,37.626 54.374,40.022 C54.374,42.421 52.419,44.373 50.017,44.373 C47.614,44.373 45.659,42.422 45.659,40.022 C45.658,37.626 47.613,35.675 50.017,35.675 Z M31.829,34.272 C34.229,34.272 36.185,36.223 36.185,38.62 C36.185,41.018 34.229,42.969 31.829,42.969 C29.427,42.969 27.472,41.019 27.472,38.62 C27.472,36.224 29.427,34.272 31.829,34.272 Z" id="Shape"></path>
                </g>
                <polyline id="Path-3" stroke="#FFFFFF" transform="translate(1173.000000, 490.000000) scale(-1, 1) rotate(-33.000000) translate(-1173.000000, -490.000000) " points="1167 497 1179 494.955436 1172.33534 483"></polyline>
                <polyline id="Path-3" stroke="#FFFFFF" transform="translate(1172.000000, 422.000000) scale(-1, 1) rotate(-7.000000) translate(-1172.000000, -422.000000) " points="1166 429 1178 426.955436 1171.33534 415"></polyline>
                <path d="M1166,484 C1203.06643,491.218043 1248.06643,493.551697 1301,491.000963" id="Path-4" stroke="#FFFFFF" stroke-dasharray="8,5" transform="translate(1233.500000, 488.000000) scale(-1, 1) translate(-1233.500000, -488.000000) "></path>
                <g id="Analytics" transform="translate(136.000000, 275.000000) rotate(-10.000000) translate(-136.000000, -275.000000) translate(89.000000, 237.000000)" fill="#FFFFFF" fill-rule="nonzero">
                    <g id="Group">
                        <path d="M86.9,0.9 L7.1,0.9 C3.25,0.9 0.1,4.05 0.1,7.9 L0.1,68.1 C0.1,71.952 3.25,75.1 7.1,75.1 L86.9,75.1 C90.75,75.1 93.9,71.952 93.9,68.1 L93.9,7.9 C93.9,4.05 90.75,0.9 86.9,0.9 Z M7.1,2.861 L86.9,2.861 C89.679,2.861 91.939,5.123 91.939,7.9 L91.939,16.254 L2.061,16.254 L2.061,7.9 C2.061,5.123 4.32,2.861 7.1,2.861 Z M86.9,73.141 L7.1,73.141 C4.321,73.141 2.061,70.879 2.061,68.1 L2.061,18.214 L91.94,18.214 L91.94,68.1 C91.939,70.879 89.68,73.141 86.9,73.141 Z" id="Shape"></path>
                        <circle id="Oval" cx="10.537" cy="10" r="1.4"></circle>
                        <circle id="Oval" cx="17.537" cy="10" r="1.4"></circle>
                    </g>
                    <path d="M70.737,28.9 C67.258,28.9 64.437,31.721 64.437,35.201 C64.437,36.944 65.145,38.521 66.29,39.662 L59.032,46.918 C57.992,46.16 56.721,45.701 55.337,45.701 C53.576,45.701 51.989,46.426 50.846,47.59 L41.351,40.807 C41.775,39.959 42.038,39.016 42.038,38.001 C42.038,34.521 39.218,31.701 35.738,31.701 C32.258,31.701 29.438,34.521 29.438,38.001 C29.438,39.754 30.156,41.334 31.309,42.477 L23.956,51.057 C22.931,50.332 21.687,49.901 20.337,49.901 C16.858,49.901 14.037,52.721 14.037,56.202 C14.037,59.681 16.857,62.501 20.337,62.501 C23.817,62.501 26.637,59.681 26.637,56.202 C26.637,54.78 26.151,53.485 25.358,52.432 L32.921,43.61 C33.773,44.038 34.72,44.301 35.737,44.301 C37.497,44.301 39.084,43.576 40.226,42.412 L49.723,49.195 C49.3,50.043 49.037,50.986 49.037,52 C49.037,55.48 51.857,58.301 55.337,58.301 C58.817,58.301 61.637,55.481 61.637,52 C61.637,50.613 61.177,49.346 60.419,48.305 L67.918,40.807 C68.77,41.235 69.717,41.5 70.737,41.5 C74.216,41.5 77.037,38.681 77.037,35.201 C77.037,31.721 74.217,28.9 70.737,28.9 Z M20.337,60.539 C17.944,60.539 15.998,58.594 15.998,56.201 C15.998,53.808 17.944,51.861 20.337,51.861 C22.73,51.861 24.677,53.808 24.677,56.201 C24.677,58.594 22.729,60.539 20.337,60.539 Z M35.737,42.34 C33.344,42.34 31.397,40.393 31.397,38.001 C31.397,35.608 33.344,33.661 35.737,33.661 C38.13,33.661 40.076,35.608 40.076,38.001 C40.076,40.393 38.13,42.34 35.737,42.34 Z M55.337,56.34 C52.944,56.34 50.998,54.393 50.998,52 C50.998,49.607 52.944,47.66 55.337,47.66 C57.73,47.66 59.677,49.607 59.677,52 C59.677,54.393 57.729,56.34 55.337,56.34 Z M70.737,39.539 C68.344,39.539 66.397,37.593 66.397,35.201 C66.397,32.809 68.344,30.861 70.737,30.861 C73.13,30.861 75.076,32.808 75.076,35.201 C75.076,37.594 73.13,39.539 70.737,39.539 Z" id="Shape"></path>
                </g>
                <g id="Distribution" transform="translate(84.000000, 506.000000) rotate(4.000000) translate(-84.000000, -506.000000) translate(35.000000, 459.000000)" fill="#FFFFFF" fill-rule="nonzero">
                    <g id="Group" transform="translate(36.000000, 27.000000)">
                        <path d="M23.229,19.307 L12.723,29.814 L2.216,19.307 C1.833,18.924 1.212,18.924 0.829,19.307 C0.446,19.69 0.446,20.31 0.829,20.693 L12.029,31.893 C12.211,32.075 12.464,32.18 12.722,32.18 C12.98,32.18 13.232,32.075 13.414,31.893 L24.614,20.693 C24.996,20.31 24.996,19.69 24.614,19.307 C24.232,18.924 23.612,18.924 23.229,19.307 Z" id="Shape"></path>
                        <path d="M12.029,19.293 C12.119,19.383 12.227,19.454 12.346,19.503 C12.464,19.553 12.592,19.58 12.722,19.58 C12.852,19.58 12.979,19.554 13.096,19.505 C13.216,19.454 13.325,19.383 13.414,19.293 L24.614,8.093 C24.996,7.71 24.996,7.089 24.614,6.706 C24.231,6.323 23.611,6.323 23.228,6.706 L13.701,16.233 L13.701,1.783 C13.701,1.242 13.263,0.803 12.722,0.803 C12.18,0.803 11.742,1.242 11.742,1.783 L11.742,16.233 L2.216,6.706 C1.833,6.323 1.212,6.323 0.829,6.706 C0.446,7.089 0.446,7.71 0.829,8.093 L12.029,19.293 Z" id="Shape"></path>
                    </g>
                    <path d="M91.7,72.199 L83.317,72.199 C83.317,71.515 83.317,69.543 83.317,67.205 C83.317,65.469 82.558,63.891 81.364,62.769 C80.17,61.644 78.531,60.953 76.737,60.953 L20.737,60.953 C18.943,60.953 17.304,61.644 16.11,62.769 C14.916,63.89 14.157,65.468 14.157,67.205 C14.157,69.543 14.157,71.516 14.157,72.199 L6.3,72.199 C3.22,72.199 0.7,74.72 0.7,77.801 L0.7,87.6 C0.7,90.68 3.22,93.2 6.3,93.2 L24.5,93.2 C27.58,93.2 30.1,90.68 30.1,87.6 L30.1,77.801 C30.1,74.721 27.58,72.199 24.5,72.199 L16.117,72.199 C16.117,71.515 16.117,69.543 16.117,67.205 C16.117,66.043 16.618,64.986 17.453,64.197 C18.29,63.408 19.451,62.914 20.737,62.914 L47.757,62.914 L47.757,72.199 L39.9,72.199 C36.82,72.199 34.3,74.72 34.3,77.801 L34.3,87.6 C34.3,90.68 36.82,93.2 39.9,93.2 L58.1,93.2 C61.18,93.2 63.701,90.68 63.701,87.6 L63.701,77.801 C63.701,74.721 61.18,72.199 58.1,72.199 L49.718,72.199 L49.718,62.914 L76.738,62.914 C78.024,62.914 79.185,63.408 80.022,64.197 C80.857,64.986 81.358,66.043 81.358,67.205 C81.358,69.543 81.358,71.516 81.358,72.199 L73.5,72.199 C70.42,72.199 67.899,74.72 67.899,77.801 L67.899,87.6 C67.899,90.68 70.42,93.2 73.5,93.2 L91.7,93.2 C94.78,93.2 97.3,90.68 97.3,87.6 L97.3,77.801 C97.3,74.721 94.78,72.199 91.7,72.199 Z M28.14,77.801 L28.14,87.6 C28.14,89.608 26.507,91.241 24.5,91.241 L6.3,91.241 C4.293,91.241 2.66,89.608 2.66,87.6 L2.66,77.801 C2.66,75.793 4.293,74.16 6.3,74.16 L24.5,74.16 C26.507,74.16 28.14,75.793 28.14,77.801 Z M61.739,77.801 L61.739,87.6 C61.739,89.608 60.106,91.241 58.099,91.241 L39.899,91.241 C37.892,91.241 36.26,89.608 36.26,87.6 L36.26,77.801 C36.26,75.793 37.892,74.16 39.899,74.16 L58.099,74.16 C60.106,74.16 61.739,75.793 61.739,77.801 Z M95.339,87.6 C95.339,89.608 93.707,91.241 91.7,91.241 L73.5,91.241 C71.493,91.241 69.86,89.608 69.86,87.6 L69.86,77.801 C69.86,75.793 71.493,74.16 73.5,74.16 L91.7,74.16 C93.707,74.16 95.339,75.793 95.339,77.801 L95.339,87.6 Z" id="Shape"></path>
                    <path d="M65.1,2.76 C67.107,2.76 68.74,4.393 68.74,6.4 L68.74,23.2 C68.74,25.208 67.107,26.842 65.1,26.842 L32.9,26.842 C30.893,26.842 29.261,25.208 29.261,23.2 L29.261,6.4 C29.261,4.393 30.893,2.76 32.9,2.76 L65.1,2.76 Z M65.1,0.8 L32.9,0.8 C29.82,0.8 27.3,3.32 27.3,6.4 L27.3,23.2 C27.3,26.281 29.82,28.801 32.9,28.801 L65.1,28.801 C68.18,28.801 70.701,26.281 70.701,23.2 L70.701,6.4 C70.7,3.32 68.18,0.8 65.1,0.8 Z" id="Shape"></path>
                </g>
                <path d="M149,319 C178.732874,376.148613 219.732874,415.481947 272,437" id="Path-2" stroke="#FFFFFF" stroke-dasharray="8,5"></path>
                <polyline id="Path-3" stroke="#FFFFFF" points="262 441 274 438.955436 267.335344 427"></polyline>
                <polyline id="Path-3" stroke="#FFFFFF" transform="translate(272.000000, 499.000000) rotate(-33.000000) translate(-272.000000, -499.000000) " points="266 506 278 503.955436 271.335344 492"></polyline>
                <path d="M132,519 C217.714242,507 266.380909,501 278,501" id="Path-4" stroke="#FFFFFF" stroke-dasharray="8,5"></path>
                <path d="M1269,336 C1259.47416,372.785931 1224.80749,402.785931 1165,426" id="Path-5" stroke="#FFFFFF" stroke-dasharray="8,5"></path>
            </g>
        </g>
    </g>
</svg>